<svg xmlns="http://www.w3.org/2000/svg" width="1200pt" height="1200pt" version="1.1" viewBox="0 0 1200 1200">
 <path d="m1193.2 108.9c2.6953-12.996-6.4648-53.715-25.223-47.965-46.504 14.258-124.18 110.76-124.18 110.76l-369.22 257.74c-20.102 8.793-21.539 25.023-21.539 25.023 18.594 89.941-88.621 194.39-88.621 194.39-17.738 13.047-99.172 64.621-127.36 82.434-7.0117-2.5078-14.746-2.5312-21.863 0-7.6055-5.2617-17.191-6.0352-24.488-1.1406-7.543 5.0859-10.406 14.734-7.9727 24.059l-14.316 11.027c-8.375-6.8672-18.973-8.6602-26.613-3.5273-6.8086 4.5977-9.457 13.508-7.6289 22.766-44.188 18.168-107.17 58.777-198.96 98.066-134.01 57.336-128.91 253.38-128.91 253.38s196.3 32.438 268.16-94.371c32.723-57.754 88.051-123.27 117.28-175.48 6.75 2.9688 13.996 2.9219 19.582-0.83203 9.125-6.1289 10.754-19.891 4.3125-31.949l7.9023-6.082c64.977 46.527 39.195 108.02 39.195 108.02 0.09375 3.6484 0.82031 5.4766 1.9375 6.1289-0.12891 1.4141 0.35547 2.8047 1.8164 3.6953 4.0508 2.4102 8.2227-1.1172 11.68-2.8984 3.2773-1.7227 6.6992-3.2422 10.383-3.9219 3.375-0.62891 7.6875-0.53516 9.1953 3.0898 3.5273 8.3984-6.7852 14.223-12.617 17.016-3.3867 1.6289-13.117 6.7734-6.1797 10.539 5.8828 3.1836 14.898-3.3633 19.473-6.4766 3.8477-2.625 7.5938-5.9883 9.3867-10.395 1.4844-3.6719 1.8047-8.1758 0.58203-11.93-5.0391-15.41-22.051-11.418-32.387-7.3086 0.14062-0.19141 0.21484-0.29688 0.21484-0.29688 19.688-46.895-9.9336-85.582-33.293-107 3.3867-0.21484 6.6875-1.2109 9.6133-3.1836 7.582-5.0625 10.434-14.758 7.9609-24.105 6.6406-7.0117 9.625-16.434 8.6484-25.641 31.652-23.859 84.949-62.84 128.58-88.859 66.699-39.777 110.33-201.88 110.33-201.88l375.16-278.27c32.816-26.422 89.559-48.023 89.559-48.023 15.926-15.172 20.426-46.586 20.426-46.586zm-791.59 735.25c-7.0234 5.3828-18.711 1.9492-26.125-7.6992l-21.613-28.148c-7.4141-9.6367-7.7109-21.836-0.69922-27.219 7.0117-5.3828 18.699-1.9492 26.125 7.6992l21.602 28.148c7.4102 9.6211 7.7305 21.836 0.71094 27.219zm40.988-44.508c-7.0352 5.4062-17.512 3.5508-23.406-4.1602l-17.215-22.418c-5.918-7.6641-5.0039-18.285 2.0078-23.668 7.0234-5.3828 17.5-3.5273 23.406 4.1602l17.227 22.418c5.8945 7.6758 4.9922 18.285-2.0195 23.668z"/>
</svg>